<?xml version="1.0" encoding="UTF-8"?>
<svg id="Layer_2" data-name="Layer 2" xmlns="http://www.w3.org/2000/svg" viewBox="0 0 834.99 750.72">
  <defs>
    <style>
      .cls-1 {
        fill: none;
        opacity: .7;
        stroke: #fff;
        stroke-miterlimit: 10;
        stroke-width: 25px;
      }

      .cls-2 {
        fill: #ec1e26;
        stroke-width: 0px;
      }
    </style>
  </defs>
  <g id="Layer_1-2" data-name="Layer 1">
    <polyline class="cls-1" points="822.49 589.83 822.49 738.22 660.13 738.22"/>
    <polyline class="cls-1" points="674.1 12.86 822.49 12.86 822.49 175.22"/>
    <polyline class="cls-1" points="160.89 737.86 12.5 737.86 12.5 575.5"/>
    <polyline class="cls-1" points="12.5 160.89 12.5 12.5 174.86 12.5"/>
    <g>
      <path class="cls-2" d="M417.29,115.97c136.61-5.19,258.09,116.38,257.52,256.77-.56,137.67-116.34,258.9-258.02,258.81-141.91-.09-257.58-122.7-257.48-260.06.1-139.08,121.29-261.05,257.98-255.52ZM634.84,373.17c-.02-119-94.62-215.39-212.81-218.11-123.11-2.83-220.08,96.56-222.69,212.58-2.72,120.93,98.5,222.77,216.46,223.43,115.04.65,218.37-95.22,219.04-217.91Z"/>
      <path class="cls-2" d="M396.97,314.29c0-19.35-.06-38.71.02-58.06.05-12.79,7.97-21.55,19.52-21.86,11.64-.31,20.62,8.8,20.67,21.6.14,33.87.16,67.74-.06,101.61-.03,5.16,1.44,8.55,5.76,11.36,21.92,14.28,41.21,32.15,63.31,46.25,11.7,7.46,14.17,20.22,6.88,30.26-7.01,9.67-19.37,10.79-30.3,2.66-24.84-18.5-49.56-37.17-74.53-55.48-7.85-5.75-11.67-12.62-11.4-22.57.5-18.58.14-37.18.14-55.77Z"/>
    </g>
  </g>
</svg>