<?xml version="1.0" encoding="UTF-8"?>
<svg id="Layer_2" data-name="Layer 2" xmlns="http://www.w3.org/2000/svg" viewBox="0 0 834.99 750.72">
  <defs>
    <style>
      .cls-1 {
        fill: none;
        opacity: .7;
        stroke: #fff;
        stroke-miterlimit: 10;
        stroke-width: 25px;
      }

      .cls-2 {
        fill: #ec1c24;
      }

      .cls-2, .cls-3 {
        stroke-width: 0px;
      }

      .cls-3 {
        fill: #fefefe;
      }
    </style>
  </defs>
  <g id="Layer_1-2" data-name="Layer 1">
    <g>
      <path class="cls-2" d="M419.06,205.61c-48.61-1.08-90.69,39.08-92.52,86.54-1.91,49.58,37.03,93.54,89.78,94.6,49.18.99,90.64-39.73,91.6-89.96.92-48.11-40-90.1-88.86-91.18ZM417.24,356.68c-29.93.04-60.02-24.15-60.33-60.7-.32-37.62,34.18-60.1,60.1-60.18,26.68-.09,62.03,23.46,60.09,59.89,1.58,35.66-29.26,60.96-59.86,60.99Z"/>
      <path class="cls-2" d="M593.79,255.9c-16.37-75.04-89.71-144.03-176.65-139.68-10.93.48-21.98-.47-32.77,1.58-44.22,8.41-80.28,30.65-108.49,65.52-19.71,24.34-32.98,51.97-37.47,83.02-6,41.52.85,81.48,17.32,119.94,16.42,38.35,36.94,74.35,59.93,109.15,28.55,43.2,59.5,84.73,87.92,128,6.92,10.54,19.85,10.43,27.15.07,4.25-6.02,7.96-12.41,12.14-18.48,25.47-36.99,51.72-73.43,76.53-110.9,25.02-37.77,47.36-76.85,63.5-119.27,14.68-38.59,19.78-78.18,10.89-118.95ZM567.78,300.87c-.65,33.43-11.47,64.9-26.22,94.72-17,34.38-36.83,67.1-58.43,98.84-21.41,31.49-44.74,61.62-65.72,95.39-9.26-13.58-17.46-26.05-26.11-38.19-24.63-34.54-49.62-68.85-71.09-105.48-14.23-24.27-28.52-48.62-38.22-75.21-10.71-29.34-18.52-59.34-14.84-90.92,4.03-34.62,17.82-64.97,42.83-89.66,34.65-34.2,76.5-49.11,124.83-44.12,26.47,2.73,50.56,12.82,71.91,28.95,41.71,31.52,62.08,73.9,61.06,125.68Z"/>
      <path class="cls-3" d="M419.06,205.61c-48.61-1.08-90.69,39.08-92.52,86.54-1.91,49.58,37.03,93.54,89.78,94.6,49.18.99,90.64-39.73,91.6-89.96.92-48.11-40-90.1-88.86-91.18ZM417.24,356.68c-29.93.04-60.02-24.15-60.33-60.7-.32-37.62,34.18-60.1,60.1-60.18,26.68-.09,62.03,23.46,60.09,59.89,1.58,35.66-29.26,60.96-59.86,60.99Z"/>
      <path class="cls-2" d="M419.06,205.61c-48.61-1.08-90.69,39.08-92.52,86.54-1.91,49.58,37.03,93.54,89.78,94.6,49.18.99,90.64-39.73,91.6-89.96.92-48.11-40-90.1-88.86-91.18ZM417.24,356.68c-29.93.04-60.02-24.15-60.33-60.7-.32-37.62,34.18-60.1,60.1-60.18,26.68-.09,62.03,23.46,60.09,59.89,1.58,35.66-29.26,60.96-59.86,60.99Z"/>
    </g>
    <g>
      <polyline class="cls-1" points="822.49 589.83 822.49 738.22 660.13 738.22"/>
      <polyline class="cls-1" points="674.1 12.86 822.49 12.86 822.49 175.22"/>
    </g>
    <g>
      <polyline class="cls-1" points="160.89 737.86 12.5 737.86 12.5 575.5"/>
      <polyline class="cls-1" points="12.5 160.89 12.5 12.5 174.86 12.5"/>
    </g>
  </g>
</svg>