<?xml version="1.0" encoding="UTF-8"?>
<svg id="Layer_2" data-name="Layer 2" xmlns="http://www.w3.org/2000/svg" viewBox="0 0 192.83 149.99">
  <defs>
    <style>
      .cls-1 {
        fill: #ed262e;
        stroke-width: 0px;
      }
    </style>
  </defs>
  <g id="Layer_1-2" data-name="Layer 1">
    <path class="cls-1" d="M0,42.54C12.95,29.64,25.88,16.74,38.84,3.86c5.19-5.15,7.73-5.12,12.9.02,4.01,3.99,7.98,8.03,12.02,12,2.26,2.22,3.26,4.95,1.69,7.67-1.43,2.47-.08,3.45,1.23,5.04,7.75,9.37,18.78,9.88,29.59,12.2,12.28,2.64,21.07-.47,28.17-10.41,1.86-2.6,5.05-4.17,2.54-8.28-1.12-1.83.11-4.19,1.77-5.85,4.72-4.7,9.34-9.5,14.15-14.1,3.45-3.3,6.86-2.58,10.05.64,13,13.13,26.02,26.24,39.04,39.34.21.21.56.27.84.4v6c-5.69,4.26-10.18,9.77-15.27,14.66-2.65,2.54-5.35,4.15-8.83,2.02-1.5-.91-2.31-.55-3.42.49-6.24,5.89-11.78,12.25-14.19,20.75-1.37,4.85-3.3,9.5-6.43,13.42-3.02,3.78-6.16,7.26-4.71,12.67.22.82-.43,1.9-.75,2.83-1.43,4.18-6.92,3.7-8.52,6.7-1.88,3.53-3.29,6.99-7.4,7.99-2.01.49-2.46,1.65-3.07,3.25-2.21,5.82-5.94,7.87-12.14,6.4-2.02-.48-2.89.02-4.07,1.53-1.73,2.21-3.75,4.26-5.88,6.09-5.57,4.79-13.17,2.83-15.94-3.97-.46-1.12.02-2.71-1.88-3.11-4.53-.95-7.29-3.82-8.21-8.34-.27-1.31-1.17-1.35-2.14-1.63-3.8-1.09-6.47-3.4-7.29-7.39-.38-1.84-1.67-2.05-3.16-2.56-5.12-1.75-7.52-5.38-6.68-10.77.41-2.65-.25-4.33-1.95-6.17-4.23-4.6-7.22-10-8.89-16-2.42-8.68-7.72-15.35-14.14-21.34-1.12-1.04-1.91-2.02-3.77-.85-3.43,2.17-6.15.54-8.82-2.01C10.19,58.32,5.7,52.78,0,48.53,0,46.54,0,44.54,0,42.54ZM107.27,47.59c-3.36-.45-5.64-.86-7.93-1.04-14.1-1.11-28-2.68-37.66-14.99-1.85-2.35-3.07-.54-4.36.75-8.35,8.36-16.65,16.77-25.11,25.01-2,1.95-2.18,3.13,0,5.03,7.42,6.49,12.75,14.39,15.48,23.96,1.39,4.87,3.98,9.08,7.12,13.04,1.66,2.09,2.72,2.51,5.03.5,6.82-5.92,12.3-3.46,17.26,3.94,3.03,4.53,7.94,8.53,12.29,12.34,2.6,2.28,5.8,3.65,6.68,7.36.25,1.03.53,1.96,1.7,2.17,4.27.78,6.75,4.05,9.55,6.85,2.01,2,4.24,2.99,6.5.71,2.28-2.3,1.17-4.51-.83-6.48-4.15-4.08-8.28-8.19-12.42-12.28-1.65-1.63-3.15-3.55-.97-5.5,1.98-1.77,3.61.02,5.06,1.47,4.11,4.12,8.26,8.22,12.38,12.33,1.99,1.99,4.27,2.97,6.53.72,2.33-2.32,1.09-4.52-.87-6.48-4.23-4.24-8.44-8.51-12.64-12.78-1.28-1.3-2.93-2.63-1.11-4.61,1.89-2.05,3.55-.97,5.09.59,3.98,4.02,7.95,8.05,11.93,12.08,2.07,2.1,4.39,4.27,7.22,1.6,2.89-2.73.76-5.09-1.34-7.19-6.23-6.25-12.48-12.47-18.67-18.75-1.61-1.63-3.9-3.51-1.29-5.8,2.31-2.03,3.91.35,5.39,1.81,5.33,5.26,10.69,10.49,15.86,15.91,1.9,1.99,3.04,1.75,4.67-.22,2.78-3.37,5.36-6.94,6.57-11.1,3.02-10.34,8.18-19.23,16.35-26.29,1.88-1.63,2.04-2.85.13-4.72-8.56-8.38-17.03-16.86-25.42-25.41-1.76-1.8-2.88-2.07-4.8-.14-16.52,16.66-33.1,33.27-49.77,49.78-2.73,2.71-1.59,3.89,1.26,4.63,2.7.71,5.3.3,7.41-1.78,2.01-1.99,4.29-3.78,5.97-6.02,5.89-7.86,13.69-10.58,23.21-9.32,2.12.28,4.8-.24,4.76,2.89-.04,2.74-2.53,2.98-4.49,2.63-9.2-1.68-15.61,2.61-21.02,9.37-1.35,1.68-2.94,3.17-4.5,4.67-3.22,3.1-7.14,4.33-11.47,3.51-3.68-.69-7.01-2.25-8.49-6.14-1.49-3.94,1.18-6.21,3.55-8.56,9.78-9.73,19.56-19.45,30.24-30.07ZM60.02,20.66c-.25-.35-.48-.81-.82-1.15-4.2-4.27-8.43-8.5-12.62-12.78-1.47-1.5-2.3-.26-3.21.65C31.35,19.37,19.37,31.38,7.31,43.34c-1.55,1.54-1.48,2.57.09,4.05,3.88,3.65,7.69,7.37,11.37,11.22,1.73,1.82,2.78,1.46,4.39-.17,11.7-11.83,23.5-23.56,35.26-35.34.67-.67,1.66-1.16,1.6-2.43ZM171.81,60.22c.65-.4,1.13-.58,1.47-.91,4.27-4.19,8.52-8.42,12.79-12.61,1.42-1.39.47-2.3-.52-3.3-12.01-11.99-24.03-23.98-35.99-36.02-1.49-1.5-2.47-1.61-3.98,0-3.64,3.88-7.4,7.66-11.25,11.34-1.71,1.63-1.76,2.64-.01,4.37,11.84,11.69,23.57,23.5,35.34,35.26.68.68,1.45,1.27,2.16,1.88ZM71.49,124.65c3.02.13,9.52-6.16,9.38-8.78-.12-2.34-1.57-3.6-3.78-3.81-2.56-.25-9.19,6.26-9.01,8.84.16,2.26,1.47,3.58,3.41,3.76ZM100.36,135.34c-.07-2.87-3.23-5.04-5.62-3.49-2.75,1.78-5.38,4.1-6.7,7.13-1.21,2.77.31,4.9,3.36,5.32,2.56.35,9.03-6.29,8.96-8.96ZM62.47,115.14c2.35-.09,8.58-6.56,8.6-8.93.03-3.18-3.29-5.21-5.97-3.28-2.39,1.72-4.57,3.94-6.27,6.33-1.77,2.49.59,5.99,3.64,5.87ZM90.71,125.08c-.45-1.72-1.57-3.25-3.9-3.4-2.31-.15-8.83,6.05-8.94,8.5-.1,2.3,1.01,3.77,3.31,4.25.16.03.33.03.49.04,2.55.05,9.18-6.52,9.04-9.38Z"/>
  </g>
</svg>