<?xml version="1.0" encoding="UTF-8"?>
<svg id="Layer_2" data-name="Layer 2" xmlns="http://www.w3.org/2000/svg" viewBox="0 0 179.35 72.28">
  <defs>
    <style>
      .cls-1 {
        fill: none;
        stroke: #eb2324;
        stroke-miterlimit: 10;
        stroke-width: 4px;
      }

      .cls-2 {
        isolation: isolate;
      }

      .cls-3 {
        fill: #fff;
      }

      .cls-3, .cls-4 {
        stroke-width: 0px;
      }

      .cls-4 {
        fill: #eb2324;
      }
    </style>
  </defs>
  <g id="Layer_2-2" data-name="Layer 2">
    <g id="Layer_1-2" data-name="Layer 1-2">
      <g class="cls-2">
        <g class="cls-2">
          <path class="cls-3" d="M0,40.77h5.61v14.26h.14c.74-1.2,1.52-2.3,2.25-3.36l8.14-10.9h6.95l-10.67,13.2,11.36,17.8h-6.62l-8.74-14.22-2.81,3.31v10.9H0v-31.01Z"/>
          <path class="cls-3" d="M26.77,41.23c2.16-.41,5.29-.69,8.56-.69,4.46,0,7.45.74,9.57,2.48,1.7,1.43,2.67,3.59,2.67,6.26,0,4-2.71,6.72-5.66,7.73v.14c2.25.83,3.59,2.99,4.32,5.98,1.01,3.87,1.84,7.45,2.44,8.65h-5.8c-.46-.92-1.24-3.45-2.07-7.31-.92-4.05-2.35-5.34-5.57-5.43h-2.85v12.74h-5.61v-30.55ZM32.38,54.89h3.36c3.82,0,6.17-2.02,6.17-5.11,0-3.36-2.35-4.97-6.03-4.97-1.79,0-2.94.14-3.5.28v9.8Z"/>
          <path class="cls-3" d="M52.85,65.61c1.79,1.06,4.6,1.98,7.5,1.98,3.59,0,5.61-1.7,5.61-4.23,0-2.35-1.56-3.73-5.47-5.15-5.15-1.84-8.42-4.55-8.42-9.02,0-5.11,4.23-8.92,11-8.92,3.36,0,5.8.74,7.41,1.56l-1.33,4.55c-1.15-.6-3.31-1.47-6.21-1.47-3.59,0-5.11,1.89-5.11,3.73,0,2.39,1.79,3.5,5.93,5.11,5.38,2.02,7.96,4.74,7.96,9.2,0,5.01-3.77,9.34-11.73,9.34-3.31,0-6.72-.92-8.42-1.98l1.29-4.69Z"/>
          <path class="cls-3" d="M76.82,40.77h5.61v14.26h.14c.74-1.2,1.52-2.3,2.25-3.36l8.14-10.9h6.95l-10.67,13.2,11.36,17.8h-6.62l-8.74-14.22-2.81,3.31v10.9h-5.61v-31.01Z"/>
        </g>
        <g class="cls-2">
          <path class="cls-4" d="M103.54,71.77v-31.01h6.49l8,13.3c2.02,3.45,3.86,7.04,5.29,10.4h.09c-.41-4.14-.51-8.14-.51-12.88v-10.81h5.25v31.01h-5.89l-8.1-13.66c-1.98-3.41-4-7.18-5.52-10.67l-.18.05c.23,4,.32,8.1.32,13.2v11.09h-5.25Z"/>
        </g>
        <g class="cls-2">
          <path class="cls-4" d="M152.03,58.02h-11.69v9.11h13.07v4.65h-18.72v-31.01h18.03v4.65h-12.38v8h11.69v4.6Z"/>
        </g>
        <g class="cls-2">
          <path class="cls-4" d="M164.76,45.51h-8.83v-4.74h23.42v4.74h-8.92v26.27h-5.66v-26.27Z"/>
        </g>
      </g>
      <path class="cls-1" d="M104.71,26.32c7.73-1.62,15.68-5.47,22.17-9.78,5.71-3.79,10.32-8.67,14.54-14.34.19-.26.57-.26.77,0,9.5,12.64,22.15,19.66,35.48,25.41"/>
    </g>
  </g>
</svg>