<?xml version="1.0" encoding="UTF-8"?>
<svg id="Layer_2" data-name="Layer 2" xmlns="http://www.w3.org/2000/svg" viewBox="0 0 83.11 49.17">
  <defs>
    <style>
      .cls-1 {
        fill: #04b423;
      }

      .cls-1, .cls-2, .cls-3 {
        stroke-width: 0px;
      }

      .cls-2 {
        fill: #dbf6dd;
      }

      .cls-3 {
        fill: #fafdfa;
      }
    </style>
  </defs>
  <g id="Layer_1-2" data-name="Layer 1">
    <g>
      <path class="cls-3" d="M41.62,49.14c5.65,0,11.3.07,16.95-.01,13.85-.2,24.45-10.67,24.54-24.17.1-13.84-10.45-24.68-24.41-24.85-11.47-.14-22.94-.14-34.4,0C10.63.26.01,11.05,0,24.57c-.01,13.62,10.47,24.31,24.17,24.55,5.82.1,11.63.02,17.45.02Z"/>
      <path class="cls-1" d="M41.62,49.14c-5.82,0-11.64.09-17.45-.02C10.47,48.88-.01,38.19,0,24.57.01,11.05,10.63.26,24.3.1c11.47-.13,22.94-.14,34.4,0,13.96.17,24.51,11.01,24.41,24.85-.09,13.51-10.69,23.97-24.54,24.17-5.65.08-11.3.01-16.95.01ZM79.28,24.74c.06-11.52-8.9-20.69-20.32-20.8-11.81-.11-21.03,8.9-21.05,20.58-.03,11.59,8.81,20.64,20.32,20.81,11.78.18,20.99-8.83,21.05-20.59Z"/>
      <path class="cls-2" d="M79.28,24.74c-.06,11.75-9.28,20.77-21.05,20.59-11.52-.18-20.35-9.22-20.32-20.81.03-11.68,9.25-20.69,21.05-20.58,11.42.11,20.38,9.29,20.32,20.8Z"/>
    </g>
  </g>
</svg>