<?xml version="1.0" encoding="UTF-8"?>
<svg id="Layer_2" data-name="Layer 2" xmlns="http://www.w3.org/2000/svg" viewBox="0 0 2366.28 1787.64">
  <defs>
    <style>
      .cls-1 {
        fill: none;
        opacity: .7;
        stroke: #fff;
        stroke-miterlimit: 10;
        stroke-width: 25px;
      }

      .cls-2 {
        fill: #ec1f27;
        stroke-width: 0px;
      }
    </style>
  </defs>
  <g id="Layer_1-2" data-name="Layer 1">
    <g>
      <path class="cls-2" d="M1721.93,607.91c-19.88,11.36-38.05,21.73-56.22,32.12-133.98,76.68-268.03,153.24-401.86,230.18-23.33,13.41-45.17,13.54-68.66.07-149.8-85.88-299.87-171.3-449.86-256.87-2.67-1.52-5.4-2.95-9.98-5.45v11.66c0,187.89-.01,375.78.01,563.66,0,28.77,14.67,43.5,43.33,43.52,70.61.05,141.22.01,211.82.02,3.59,0,7.2-.15,10.77.13,10.58.85,18.57,8.52,18.35,18.4-.24,10.43-6,17.11-16.21,19.36-3.44.76-7.14.42-10.73.43-71.41.02-142.81.06-214.22,0-49.55-.04-81.44-31.94-81.45-81.55-.04-211.42-.04-422.85,0-634.27,0-50.67,31.17-81.84,82.08-81.85,299.58-.06,599.17-.05,898.75,0,51.58,0,82.4,31.03,82.41,82.71.03,178.31.01,356.63,0,534.94,0,3.59.26,7.23-.24,10.76-1.32,9.36-6.74,15.28-16.2,16.48-9.93,1.25-16.87-3.12-20.61-12.53-2-5.03-1.27-10.24-1.27-15.38-.04-153.98-.04-307.96-.04-461.94,0-4.21,0-8.43,0-14.6ZM1228.77,505.81c-148.36,0-296.73,0-445.09,0-4.39,0-8.78-.09-13.15.22-16.6,1.17-30.28,12.63-34.31,28.55-3.99,15.79-1.08,28.91,7.52,33.82,156.18,89.06,312.45,177.98,468.4,267.44,12.87,7.38,22.73,6.84,35.2-.39,77.09-44.68,154.57-88.7,231.91-132.95,78.04-44.64,156.03-89.36,234.19-133.8,6.28-3.57,8.21-7.54,8.77-14.79,2.45-31.47-16.02-48.75-48.37-48.54-148.36.97-296.72.43-445.08.43Z"/>
      <path class="cls-2" d="M1323.72,1502.95c-47.99-.06-79.29-43.32-64.87-87.85,16.28-50.3,33.04-100.44,50.19-150.45,4.36-12.73,4.54-24.4.19-37.13-17.11-50.04-33.9-100.2-50.24-150.5-13.92-42.84,12.86-83.53,57.52-88.29,12.65-1.35,24.55,1.61,35.81,7.23,125.91,62.89,251.82,125.78,377.69,188.76,24.97,12.5,39.09,32.9,39.17,60.85.08,27.89-13.61,48.52-38.69,61.07-125.89,63.01-251.81,125.93-377.71,188.91-9.79,4.9-20.01,7.75-29.06,7.4ZM1433.79,1265.17c-25.52,0-51.05.24-76.56-.17-6.28-.1-9,1.96-10.9,7.74-16.76,50.98-33.68,101.9-50.76,152.77-4.27,12.73-2.17,23.81,7.89,32.53,9.77,8.46,21.16,8.75,32.42,3.13,125.89-62.86,251.73-125.83,377.58-188.77,6.97-3.49,12.53-8.3,15.61-15.72,6.35-15.28-.14-29.61-18.1-38.6-124.14-62.13-248.34-124.17-372.48-186.32-12.04-6.03-23.58-7.07-34.6,1.77-10.04,8.05-12.65,19.79-7.7,34.69,16.54,49.77,33.37,99.45,49.63,149.31,2.38,7.31,5.59,9.56,13.26,9.5,49.05-.39,98.1-.22,147.15-.19,16.33.01,25.12,6.6,25.28,18.75.16,12.54-9.07,19.54-25.94,19.57-23.93.03-47.85,0-71.78,0Z"/>
      <path class="cls-2" d="M1149.63,1226.83c19.11,0,38.22-.11,57.32.04,14.28.11,22.27,7.18,22.16,19.18-.11,11.89-8.24,19.03-22.49,19.08-39.01.13-78.02.14-117.04,0-14.04-.05-22.3-7.57-22.22-19.41.07-11.7,8.34-18.75,22.56-18.84,19.9-.13,39.81-.03,59.71-.03Z"/>
      <path class="cls-2" d="M1169.27,1102.47c12.75,0,25.5-.12,38.25.03,13.49.16,21.42,7.08,21.63,18.55.22,11.6-7.67,19.52-20.71,19.66-26.3.28-52.6.3-78.9-.02-12.79-.16-21.03-8.63-20.6-19.93.41-10.81,8.45-18.04,20.87-18.24,13.15-.22,26.3-.05,39.45-.05Z"/>
      <path class="cls-2" d="M1169.62,1351.32c13.15,0,26.3-.19,39.44.05,12.13.22,19.45,6.86,20.05,17.58.63,11.22-6.59,20.16-18.62,20.42-27.48.59-54.98.57-82.46.02-11.87-.23-19.66-9.45-19.06-20.22.58-10.4,8.36-17.57,20.01-17.79,13.54-.26,27.09-.06,40.64-.06Z"/>
    </g>
    <polyline class="cls-1" points="2353.78 1463.06 2353.78 1775.14 2064.06 1775.14"/>
    <polyline class="cls-1" points="12.5 1463.06 12.5 1775.14 301.42 1775.14"/>
    <polyline class="cls-1" points="2064.06 12.5 2353.78 12.5 2353.78 337.14"/>
    <polyline class="cls-1" points="12.5 337.14 12.5 12.5 301.42 12.5"/>
  </g>
</svg>