<?xml version="1.0" encoding="UTF-8"?>
<svg id="Layer_2" data-name="Layer 2" xmlns="http://www.w3.org/2000/svg" viewBox="0 0 2366.28 1787.64">
  <defs>
    <style>
      .cls-1 {
        fill: none;
        opacity: .7;
        stroke: #fff;
        stroke-miterlimit: 10;
        stroke-width: 25px;
      }

      .cls-2 {
        fill: #ec1f27;
        stroke-width: 0px;
      }
    </style>
  </defs>
  <g id="Layer_1-2" data-name="Layer 1">
    <g>
      <path class="cls-2" d="M1135.02,883.44c-27.79,21.48-43.59,47.14-44.47,79.03-1.5,54.29-.89,108.67-.11,162.99.3,21.12,9.04,40.08,20.99,57.53,29.16,42.58,51.69,89.04,77.8,133.41,2.33,3.96,2.29,8.21,2.3,12.49.03,25.41.1,50.82-.01,76.23-.06,13.79-6.64,21.66-17.55,21.54-10.74-.12-17.52-8.31-17.61-21.87-.14-21.89-.19-43.78.05-65.67.07-6.47-1.35-12.04-4.61-17.7-19.45-33.83-38.57-67.85-57.81-101.81-.96-1.7-1.77-3.54-3.01-5.01-30.49-36.3-38.44-78.83-36.65-124.93,1.47-37.86.51-75.83.25-113.75-.34-49.96,18.6-90.8,59.13-119.97,16.17-11.64,22.08-24.1,21.85-44.26-1.18-101.63-.63-203.27-.49-304.91.05-40.78,24.05-71.39,61.34-79.01,44.88-9.18,89.66,23.97,90.87,69.82,1.58,59.77.64,119.61.78,179.41.02,7.82.14,15.64,0,23.45-.1,5.62,1.82,6.35,7.04,4.52,50.05-17.6,82.98-4.86,106.43,41.47,2.69,5.31,4.32,4.45,8.51,2.38,42.68-21.12,81.34-10.85,106.23,28.95,4.49,7.18,7.4,3.96,11.82,1.74,49.11-24.69,102.99-2.9,116.71,47.19,2.4,8.74,2.9,17.7,2.9,26.71,0,85.61-.05,171.22.02,256.83.04,47.53-11.27,91.88-35.84,132.81-15.66,26.1-30.55,52.67-46.06,78.86-3.11,5.26-4.61,10.41-4.55,16.52.24,22.67.33,45.35,0,68.02-.21,14.88-11.39,23.58-23.76,19-8.47-3.14-11.46-9.77-11.42-18.47.12-26.58.12-53.17-.01-79.75-.03-5.75,2.03-10.53,4.86-15.34,16.98-28.95,33.6-58.13,50.76-86.97,20.48-34.41,30.6-71.53,30.6-111.49,0-87.57.16-175.13-.06-262.7-.09-37.2-32.24-57.02-65.78-41.07-13.01,6.19-20.77,15.08-20.36,30.87.75,28.91.26,57.85.04,86.78-.09,12.29-6.37,19.83-16.36,20.62-11.14.88-18.7-6.98-18.76-20.2-.17-36.35-.28-72.71-.12-109.06.11-25.73-16.55-44.71-40.38-45.36-24.07-.66-42.82,17.04-43.31,42.61-.7,37.12-.18,74.27-.4,111.41-.09,15.95-12.67,25.21-25.31,18.87-7.97-4-9.98-11.1-9.94-19.6.23-50.43.48-100.86.17-151.28-.18-29.55-26.94-49.66-54.37-41.66-18.95,5.53-29.73,21.48-29.82,45.24-.17,47.3-.05,94.6-.06,141.9,0,3.52.14,7.05-.13,10.55-.78,10.13-6.66,15.91-16.46,16.48-9.97.58-16.13-5.17-18.2-14.75-.81-3.75-.42-7.78-.42-11.68.13-137.6.17-275.19.53-412.79.05-19.36-6.3-34.52-24.24-43.09-26.38-12.6-54.86,4.36-58.09,34.34-.46,4.26-.25,8.59-.25,12.89-.01,134.87,0,269.73,0,404.6,0,3.52.1,7.04-.03,10.55-.43,11.82-7.24,19.17-17.59,19.08-10.3-.08-17.25-7.41-17.53-19.36-.32-13.64-.07-27.3-.07-44.16Z"/>
      <path class="cls-2" d="M954.25,740.29c0,28.93.06,57.85-.02,86.78-.05,16.13-5.77,22.11-21.7,22.13-57.85.11-115.71.1-173.56,0-16.05-.03-22.01-5.89-22.05-21.99-.14-57.85-.13-115.71,0-173.56.03-16.08,6.02-22.19,21.92-22.23,57.85-.15,115.71-.14,173.56,0,16,.04,21.79,6.09,21.84,22.1.09,28.93.03,57.85.03,86.78ZM919.01,740.15c0-21.47-.31-42.94.17-64.39.16-7.28-2.06-9.17-9.19-9.12-42.54.31-85.08.28-127.62.03-7.12-.04-10.35,1.33-10.28,9.5.38,42.93.35,85.86.02,128.79-.06,7.49,2.61,9.08,9.49,9.04,42.93-.26,85.86-.34,128.79.06,7.8.07,8.86-2.86,8.75-9.52-.35-21.46-.13-42.93-.13-64.39Z"/>
      <path class="cls-2" d="M954.25,1082.91c0,28.93.06,57.86-.02,86.78-.05,16.04-5.8,22.17-21.79,22.22-57.86.17-115.71.18-173.57,0-15.94-.05-21.92-6.22-21.96-22.26-.13-57.86-.13-115.71,0-173.57.04-16.02,6.06-22.14,22-22.18,57.86-.15,115.71-.15,173.57,0,15.94.04,21.7,6.15,21.75,22.22.08,28.93.02,57.86.02,86.78ZM919.01,1082.7c0-21.48-.3-42.96.17-64.43.16-7.25-1.99-9.21-9.16-9.16-42.56.32-85.13.29-127.69.03-7.19-.04-10.3,1.46-10.23,9.57.37,42.95.34,85.91.02,128.86-.06,7.44,2.55,9.16,9.49,9.12,42.95-.26,85.91-.35,128.86.07,7.93.08,8.76-3.11,8.66-9.63-.32-21.47-.12-42.95-.12-64.43Z"/>
      <path class="cls-2" d="M736.86,397.95c0-28.54-.08-57.07.03-85.61.07-17.69,5.65-23.39,23.07-23.44,40.65-.1,81.31-.09,121.96,0,14.52.03,22.89,6.74,22.75,17.77-.15,11.07-8.36,17.52-23.12,17.58-32.83.13-65.68.38-98.5-.17-9.05-.15-11.04,2.79-10.95,11.31.41,41.82.37,83.65.02,125.47-.07,7.91,1.79,10.78,10.26,10.7,42.6-.41,85.21-.37,127.82-.01,7.47.06,9.31-2.32,8.97-9.33-.55-11.31-.32-22.67-.1-34,.24-12.33,7.71-20.32,18.21-19.96,10.09.35,16.8,7.99,16.92,19.96.18,19.54.2,39.09,0,58.63-.14,13.16-6.23,19.75-19.29,19.8-59.42.21-118.83.22-178.25-.02-13.94-.05-19.65-6.7-19.74-21.91-.18-28.93-.05-57.85-.05-86.78Z"/>
      <path class="cls-2" d="M1443.15,297.06c94.15,0,188.29,0,282.44.01,3.9,0,7.95-.44,11.67.45,8.99,2.14,14.42,8.12,14.21,17.51-.21,9.33-5.73,15.05-14.85,16.99-2.25.48-4.67.25-7.01.25-190.63,0-381.27,0-571.9,0-2.34,0-4.74.21-7.02-.2-9.82-1.76-15.46-7.97-15.35-17.71.1-9.2,5.67-15.23,14.87-16.96,3.78-.71,7.79-.33,11.69-.33,93.75-.01,187.51-.01,281.26-.01Z"/>
      <path class="cls-2" d="M845.91,446.94c-5.34-.27-9.7-2.63-13.39-6.36-9.61-9.7-19.4-19.23-28.74-29.18-8.12-8.64-7.97-18.75-.28-25.93,6.94-6.48,16.86-5.68,25.35,1.13,6.42,5.15,10.23,16.83,18.8,14.91,6.81-1.53,11.97-10.52,17.79-16.28,26.92-26.6,53.84-53.2,80.68-79.87,5.82-5.78,11.99-10.18,20.71-7.45,13.89,4.35,16.51,20.17,4.88,31.76-36.76,36.62-73.71,73.05-110.61,109.53-1.66,1.64-3.38,3.29-5.31,4.57-2.95,1.94-6.21,3.27-9.88,3.18Z"/>
      <path class="cls-2" d="M1409.75,426.16c20.7,0,41.41-.08,62.11.03,13.28.07,21.66,7.25,21.39,17.97-.26,10.39-8.22,17.15-20.95,17.18-42.19.11-84.37.11-126.56,0-12.66-.03-20.62-6.93-20.76-17.32-.15-10.78,8.1-17.75,21.49-17.82,21.09-.11,42.19-.03,63.28-.03Z"/>
    </g>
    <polyline class="cls-1" points="2353.78 1463.06 2353.78 1775.14 2064.06 1775.14"/>
    <polyline class="cls-1" points="12.5 1463.06 12.5 1775.14 301.42 1775.14"/>
    <polyline class="cls-1" points="2064.06 12.5 2353.78 12.5 2353.78 337.14"/>
    <polyline class="cls-1" points="12.5 337.14 12.5 12.5 301.42 12.5"/>
  </g>
</svg>