<?xml version="1.0" encoding="UTF-8"?>
<svg id="Layer_2" data-name="Layer 2" xmlns="http://www.w3.org/2000/svg" viewBox="0 0 616.84 616.83">
  <defs>
    <style>
      .cls-1 {
        fill: #ec1c24;
      }

      .cls-1, .cls-2, .cls-3 {
        stroke-width: 0px;
      }

      .cls-2 {
        fill: #fefcfc;
      }

      .cls-3 {
        fill: #ec2028;
      }
    </style>
  </defs>
  <g id="Layer_1-2" data-name="Layer 1">
    <g>
      <path class="cls-1" d="M544.98,616.83H70.9c-.8-2.08-2.83-1.37-4.28-1.73-6.14-1.54-12.27-3.19-17.89-6.05C16.74,592.77.17,566.64.09,530.69c-.17-82.67-.06-165.34-.05-248.01,0-66.04.04-132.07-.03-198.11-.01-13.22,2.59-25.85,8.69-37.5C24.99,15.96,50.97.11,86.03.08,234.4-.06,382.77.02,531.15.02c1.66,0,3.33,0,4.99.04,33.46.75,65.18,24.29,75.89,55.96,1.78,5.25,2.18,10.89,4.81,15.85v474.08c-2.1.99-1.44,3.14-1.85,4.74-7.7,30.13-25.59,51.06-55.22,61.43-4.88,1.71-9.86,3.13-14.79,4.69ZM501.08,177.2c.23-14-12.52-22-25.47-17.38-36.56,13.03-73.09,26.18-109.6,39.35-35.74,12.89-71.44,25.91-107.18,38.8-44.79,16.15-89.61,32.21-134.4,48.34-7.57,2.73-10.8,10.21-7.33,16.73,1.95,3.68,5.3,5.25,9.12,6.29,28.19,7.67,56.36,15.42,84.56,23.06,2.24.61,3.88,1.31,4.71,3.75,7.05,20.91,14.21,41.78,21.33,62.67,3.7,10.83,6.95,21.84,11.22,32.44,4.57,11.35,16.35,13.77,25.64,5.89,1.77-1.5,3.48-3.09,5.17-4.69,12.66-11.98,25.35-23.92,37.91-36,2.36-2.27,4.12-2.38,6.79-.53,12.41,8.61,24.93,17.05,37.43,25.52,16.77,11.35,33.45,22.85,50.4,33.93,11.91,7.78,26.46,1.67,29.59-12.08,7.29-32.06,14.49-64.13,21.75-96.19,10.74-47.45,21.51-94.9,32.25-142.35,2.2-9.71,4.33-19.44,6.13-27.54Z"/>
      <path class="cls-2" d="M501.08,177.2c-1.8,8.1-3.93,17.83-6.13,27.54-10.74,47.45-21.51,94.9-32.25,142.35-7.26,32.06-14.46,64.14-21.75,96.19-3.13,13.76-17.68,19.87-29.59,12.08-16.95-11.08-33.63-22.58-50.4-33.93-12.51-8.46-25.02-16.91-37.43-25.52-2.66-1.85-4.43-1.75-6.79.53-12.55,12.09-25.25,24.03-37.91,36-1.69,1.6-3.4,3.18-5.17,4.69-9.29,7.88-21.08,5.46-25.64-5.89-4.27-10.6-7.52-21.61-11.22-32.44-7.13-20.88-14.28-41.76-21.33-62.67-.82-2.44-2.47-3.14-4.71-3.75-28.2-7.64-56.37-15.38-84.56-23.06-3.82-1.04-7.16-2.61-9.12-6.29-3.47-6.52-.24-14,7.33-16.73,44.8-16.13,89.61-32.19,134.4-48.34,35.74-12.89,71.44-25.91,107.18-38.8,36.51-13.17,73.04-26.32,109.6-39.35,12.94-4.61,25.7,3.38,25.47,17.38ZM229.69,330.76c.22.78.61,2.39,1.13,3.95,1.92,5.82,3.89,11.64,5.84,17.45,6.23,18.56,12.47,37.12,18.7,55.68.46,1.36.44,3.34,2.51,3.05,1.62-.22,1.47-1.99,1.73-3.25.24-1.14.44-2.29.57-3.44,1.63-14.2,3.37-28.4,4.78-42.62.5-5.01,2.57-8.63,6.49-11.73,10.81-8.56,21.41-17.37,32.09-26.09,27.91-22.79,55.82-45.57,83.72-68.37,14.4-11.76,28.82-23.51,43.18-35.32,2.02-1.66,4.52-3.49,2.33-6.62-1.83-2.61-4.21-2.05-6.6-.68-20.15,11.56-40.31,23.1-60.47,34.65-22.17,12.71-44.34,25.42-66.51,38.14-21.46,12.31-42.92,24.6-64.37,36.93-2.85,1.64-5.09,3.77-5.13,8.27Z"/>
      <path class="cls-3" d="M229.69,330.76c.04-4.5,2.28-6.63,5.13-8.27,21.45-12.33,42.91-24.62,64.37-36.93,22.17-12.71,44.34-25.43,66.51-38.14,20.16-11.55,40.32-23.09,60.47-34.65,2.39-1.37,4.77-1.93,6.6.68,2.19,3.13-.31,4.96-2.33,6.62-14.36,11.81-28.78,23.56-43.18,35.32-27.91,22.79-55.81,45.58-83.72,68.37-10.68,8.72-21.28,17.53-32.09,26.09-3.92,3.11-6,6.72-6.49,11.73-1.41,14.22-3.15,28.42-4.78,42.62-.13,1.16-.33,2.31-.57,3.44-.26,1.25-.12,3.02-1.73,3.25-2.07.29-2.06-1.68-2.51-3.05-6.23-18.56-12.46-37.12-18.7-55.68-1.95-5.81-3.92-11.63-5.84-17.45-.52-1.56-.91-3.17-1.13-3.95Z"/>
    </g>
  </g>
</svg>