<?xml version="1.0" encoding="UTF-8"?>
<svg id="Layer_2" data-name="Layer 2" xmlns="http://www.w3.org/2000/svg" viewBox="0 0 616.87 616.82">
  <defs>
    <style>
      .cls-1 {
        fill: #ec1c24;
      }

      .cls-1, .cls-2 {
        stroke-width: 0px;
      }

      .cls-2 {
        fill: #fefdfd;
      }
    </style>
  </defs>
  <g id="Layer_1-2" data-name="Layer 1">
    <g>
      <path class="cls-1" d="M544.94,616.82H70.86c-1.18-2.11-3.46-1.5-5.23-1.96-29.72-7.74-50.28-25.54-60.95-54.62-1.73-4.72-1.82-9.96-4.68-14.28V70.88c2.06-.81,1.35-2.84,1.72-4.29,1.67-6.44,3.44-12.86,6.51-18.78C24.6,16.27,50.65.11,86.14.08,234.34-.06,382.54.02,530.74.03c2.33,0,4.66-.06,6.98.1,18.66,1.24,35.4,7.68,49.49,19.92,20.4,17.72,29.69,40.41,29.66,67.46-.15,147.37-.07,294.74-.07,442.1,0,2,0,3.99-.04,5.99-.67,34.1-24.1,65.79-56.5,76.41-5.09,1.67-10.21,3.21-15.32,4.82ZM342,250.87c-.16-11.31,1.18-22.61.13-33.91-1.01-10.94-6.17-16.97-17.1-17.97-21.88-2-43.85-2.28-65.75-.13-6.07.6-11.44,3.6-14.85,9.02-2.52,3.99-1.34,6.53,3.19,7.61,11.6,2.77,16.5,8.51,17.32,20.49.45,6.64.85,13.28,1.06,19.93.45,13.99.39,27.94-3.56,41.57-1.98,6.8-6.62,8.51-12.36,4.27-2.25-1.67-4.43-3.57-6.23-5.71-8.23-9.82-15.31-20.45-21.94-31.39-8.79-14.51-15.9-29.86-22.33-45.53-3.17-7.72-9.22-11.73-17.38-12.02-18.95-.67-37.91-1.16-56.87-.59-7.63.23-11.05,4.96-9.28,12.43.45,1.93,1.22,3.8,2.05,5.61,15.44,33.65,31.38,67.06,51.63,98.16,13.41,20.6,27.38,40.78,45.62,57.64,31.44,29.05,68.76,40.42,110.89,37.43,10.16-.72,14.78-5.77,15.97-15.82,1.04-8.75,2.39-17.46,5.13-25.87,2.98-9.17,10.13-11.38,17.77-5.45,2.62,2.03,5.16,4.21,7.46,6.59,8.77,9.08,17.4,18.3,26.14,27.42,8.7,9.08,19.29,13.86,31.94,14.01,10.81.12,21.62.47,32.43.47,8.14,0,16.31.63,24.4-.75,12.01-2.05,17.29-12.68,11.1-23.09-3.63-6.11-7.91-11.88-12.27-17.52-11.83-15.32-26.33-28.12-39.88-41.82-10.05-10.17-10.51-14.45-3.07-26.6.43-.71.98-1.34,1.47-2.01,13.97-19.2,28.08-38.29,41.84-57.64,6.37-8.95,11.45-18.68,13.91-29.55,1.43-6.31-.88-10.28-7.23-11.93-2.24-.58-4.58-1.09-6.87-1.1-21.79-.07-43.58-.04-65.36-.02-7.01,0-11.45,3.57-13.9,10.03-7.25,19.15-16.24,37.42-27.62,54.48-6.93,10.39-14.62,20.19-23.5,28.97-4.8,4.75-10.18,3.38-12.32-3.02-.89-2.65-1.25-5.5-1.65-8.29-1.83-12.78-.18-25.58-.15-38.37Z"/>
      <path class="cls-2" d="M342,250.87c-.03,12.79-1.68,25.59.15,38.37.4,2.79.77,5.64,1.65,8.29,2.14,6.39,7.52,7.77,12.32,3.02,8.88-8.79,16.56-18.59,23.5-28.97,11.38-17.06,20.37-35.33,27.62-54.48,2.45-6.46,6.88-10.02,13.9-10.03,21.79-.02,43.58-.06,65.36.02,2.29,0,4.63.51,6.87,1.1,6.35,1.65,8.66,5.63,7.23,11.93-2.47,10.88-7.55,20.6-13.91,29.55-13.76,19.35-27.87,38.44-41.84,57.64-.49.67-1.04,1.3-1.47,2.01-7.44,12.15-6.98,16.43,3.07,26.6,13.55,13.7,28.04,26.5,39.88,41.82,4.36,5.64,8.63,11.41,12.27,17.52,6.19,10.4.9,21.04-11.1,23.09-8.09,1.38-16.27.76-24.4.75-10.81,0-21.62-.35-32.43-.47-12.65-.14-23.25-4.92-31.94-14.01-8.73-9.12-17.37-18.33-26.14-27.42-2.3-2.38-4.84-4.56-7.46-6.59-7.64-5.93-14.78-3.72-17.77,5.45-2.74,8.41-4.09,17.12-5.13,25.87-1.19,10.05-5.81,15.1-15.97,15.82-42.14,2.99-79.46-8.38-110.89-37.43-18.24-16.86-32.21-37.04-45.62-57.64-20.25-31.1-36.2-64.51-51.63-98.16-.83-1.81-1.59-3.69-2.05-5.61-1.76-7.46,1.65-12.19,9.28-12.43,18.96-.57,37.92-.08,56.87.59,8.16.29,14.21,4.3,17.38,12.02,6.43,15.68,13.54,31.02,22.33,45.53,6.63,10.94,13.72,21.57,21.94,31.39,1.8,2.14,3.97,4.04,6.23,5.71,5.74,4.24,10.38,2.54,12.36-4.27,3.96-13.62,4.01-27.58,3.56-41.57-.21-6.65-.61-13.29-1.06-19.93-.81-11.98-5.72-17.72-17.32-20.49-4.53-1.08-5.71-3.61-3.19-7.61,3.41-5.42,8.78-8.42,14.85-9.02,21.9-2.15,43.87-1.87,65.75.13,10.93,1,16.09,7.03,17.1,17.97,1.04,11.3-.3,22.6-.13,33.91Z"/>
    </g>
  </g>
</svg>