<?xml version="1.0" encoding="UTF-8"?>
<svg id="Layer_2" data-name="Layer 2" xmlns="http://www.w3.org/2000/svg" viewBox="0 0 333.18 333.22">
  <defs>
    <style>
      .cls-1 {
        fill: #ec1e26;
        stroke-width: 0px;
      }
    </style>
  </defs>
  <g id="Layer_1-2" data-name="Layer 1">
    <path class="cls-1" d="M250.7,283.72c-8.03-7.86-16.14-15.64-24.09-23.58-51.84-51.79-103.64-103.61-155.45-155.42-16.06-16.06-32.21-32.02-48.15-48.19-9.24-9.37-9.5-23.14-1.04-32.85,8.77-10.05,24.59-10.54,34.58-.71,18.78,18.5,37.38,37.19,56.03,55.83,36.24,36.23,72.46,72.48,108.68,108.73,19.69,19.71,39.36,39.43,59.06,59.13,1.24,1.24,2.19,2.91,4.24,3.38,1.28-1.82.62-3.86.62-5.74.04-73.13.03-146.26.05-219.4,0-12.41,6.94-21.34,18.67-24.25,13.62-3.39,27.71,6.77,28.78,20.81.2,2.65.13,5.33.13,7.99,0,89.96.02,179.92-.05,269.87,0,4.31.84,8.57.21,12.94-1.92,13.29-12.92,22.09-26.35,20.84-2.48-.23-4.99-.27-7.48-.27-90.79-.01-181.58-.06-272.37.05-10.5.01-18.69-3.38-23.97-12.82-8.05-14.39,2.37-33.72,18.85-34.79,1.83-.12,3.66-.06,5.5-.06,72.3,0,144.6,0,216.9,0h5.83c.28-.5.56-1,.84-1.5Z"/>
  </g>
</svg>