<?xml version="1.0" encoding="UTF-8"?>
<svg id="Layer_2" data-name="Layer 2" xmlns="http://www.w3.org/2000/svg" viewBox="0 0 54.14 55.62">
  <defs>
    <style>
      .cls-1 {
        fill: none;
        stroke: #eb2324;
        stroke-miterlimit: 10;
        stroke-width: 4px;
      }

      .cls-2 {
        isolation: isolate;
      }

      .cls-3 {
        fill: #fff;
      }

      .cls-3, .cls-4 {
        stroke-width: 0px;
      }

      .cls-4 {
        fill: #eb2324;
      }
    </style>
  </defs>
  <g id="Layer_2-2" data-name="Layer 2">
    <path class="cls-3" d="M.41,24.61h5.61v14.26h.14c.74-1.2,1.52-2.3,2.25-3.36l8.14-10.9h6.95l-10.67,13.2,11.36,17.8h-6.62l-8.74-14.22-2.81,3.31v10.9H.41v-31.01Z"/>
    <g class="cls-2">
      <path class="cls-4" d="M28.28,55.62v-31.01h6.49l8,13.3c2.02,3.45,3.86,7.04,5.29,10.4h.09c-.41-4.14-.51-8.14-.51-12.88v-10.81h5.25v31.01h-5.89l-8.1-13.66c-1.98-3.41-4-7.18-5.52-10.67l-.18.05c.23,4,.32,8.1.32,13.2v11.09h-5.25Z"/>
    </g>
    <path class="cls-1" d="M.41,19.64c5.61-1.18,11.38-3.97,16.08-7.1,4.14-2.75,7.49-6.29,10.55-10.4.14-.19.41-.19.56,0,6.89,9.17,16.07,14.26,25.74,18.44"/>
  </g>
</svg>