<?xml version="1.0" encoding="UTF-8"?>
<svg id="Layer_2" data-name="Layer 2" xmlns="http://www.w3.org/2000/svg" viewBox="0 0 834.99 750.72">
  <defs>
    <style>
      .cls-1 {
        fill: none;
        opacity: .7;
        stroke: #fff;
        stroke-miterlimit: 10;
        stroke-width: 25px;
      }

      .cls-2 {
        fill: #ec1f27;
        stroke-width: 0px;
      }
    </style>
  </defs>
  <g id="Layer_1-2" data-name="Layer 1">
    <polyline class="cls-1" points="822.49 589.83 822.49 738.22 660.13 738.22"/>
    <polyline class="cls-1" points="674.1 12.86 822.49 12.86 822.49 175.22"/>
    <polyline class="cls-1" points="160.89 737.86 12.5 737.86 12.5 575.5"/>
    <polyline class="cls-1" points="12.5 160.89 12.5 12.5 174.86 12.5"/>
    <path class="cls-2" d="M160.51,239.29c-.01-16.34,1.12-30.34,7.09-43.76,3.64-8.18,9.86-13.98,15.68-20.14,13.1-13.85,26.5-27.42,40.07-40.81,24.65-24.31,53.92-24.54,78.88-.39,14.79,14.3,28.71,29.5,43.57,43.73,7.05,6.76,14.98,12.59,21.6,19.89,20.2,22.32,20.91,47.85,1.18,70.59-11.65,13.42-24.16,26.1-37.6,37.77-3.49,3.03-4.01,5.39-1.85,9.68,13.73,27.3,32.96,50.53,53.37,72.89,21.65,23.73,46.27,44.01,73.25,61.37,6.37,4.1,13.6,6.83,20.12,10.72,3.3,1.97,4.18-.71,5.51-2.01,12.15-11.9,23.86-24.27,36.3-35.86,16.91-15.76,38.7-21.5,60.05-9.55,5.05,2.83,9.89,6,14.05,10.23,21.91,22.25,43.67,44.66,66.05,66.43,20.32,19.77,20.78,49.64,2.3,70.73-10.35,11.82-22.1,22.41-32.78,33.97-7.95,8.61-15.67,17.35-25.81,23.52-20.79,12.65-43.14,14.99-66.83,11.16-62.35-10.07-115.4-40.46-166.15-75.69-22.77-15.8-43.49-34.19-63.6-53.32-40.98-39-75.3-83.12-102.45-132.63-17.47-31.85-32.07-65.03-39.45-100.92-2.01-9.77-2.02-19.72-2.54-27.6ZM186.83,236.87c-.47,11.92,1.7,22.9,4.3,33.78,9.52,39.98,27.91,76.13,49.69,110.49,28.97,45.72,63.77,86.51,105.31,121.58,34.91,29.47,72.25,54.98,113.44,74.74,29.45,14.12,59.66,25.73,92.91,26.93,15.84.57,30.79-2.44,42.4-13.59,15-14.41,29.34-29.53,43.33-44.93,12.71-13.99,12.38-26.04-.91-39.52-20.5-20.8-41.5-41.11-62.25-61.67-15.15-15.02-26.55-15.08-41.76,0-12.82,12.71-25.46,25.62-38.37,38.24-8.4,8.21-16.36,9.38-26.35,4.42-22.37-11.11-43.34-24.5-62.57-40.38-22.75-18.78-43.78-39.37-62.4-62.36-16.02-19.79-30.51-40.51-41-63.83-4.33-9.63-4.5-18.74,3.55-26.63,11.25-11.03,22.4-22.17,34-32.82,21.42-19.68,22.01-31.74,1.45-52-14.05-13.84-28.46-27.32-42.66-41-6.04-5.82-11.92-11.8-17.99-17.59-11.21-10.67-24.55-11.06-36.04-.42-13.51,12.51-25.87,26.14-39.94,38.2-14.46,12.4-19.48,29.91-18.12,48.34Z"/>
  </g>
</svg>