<?xml version="1.0" encoding="UTF-8"?>
<svg id="Layer_2" data-name="Layer 2" xmlns="http://www.w3.org/2000/svg" viewBox="0 0 2274.65 2726.71">
  <defs>
    <style>
      .cls-1 {
        fill: #ec1f27;
        stroke-width: 0px;
      }
    </style>
  </defs>
  <g id="Layer_1-2" data-name="Layer 1">
    <path class="cls-1" d="M455.6,775.8c0-214.61-.12-429.22.06-643.83.07-89.62,41.95-131.33,132.79-131.42,273.41-.28,546.82-1.15,820.21.13,435.84,2.05,779.1,293.13,854.51,722.72,77.07,439.04-243.45,891.63-684.18,966.74-62.52,10.65-125.25,15.51-188.59,15.43-220.49-.27-440.98.67-661.46-.89-35.07-.25-50.15,6.32-47.23,44.98,3.54,46.77,3.13,94.16.08,141-2.23,34.2,10.24,41.22,42.22,41,201.37-1.39,402.75-.72,604.13-.67,14.69,0,29.51-.73,44.06.81,60.63,6.42,106.88,57.55,105.4,115.63-1.56,61.37-50.18,110.45-114.08,110.72-211.67.88-423.34,1.27-635-.45-35.91-.29-47.5,7.85-46.87,45.39,2.27,135.19,1.57,270.46.47,405.68-.47,57.62-35.49,102.02-85.47,114.42-50.87,12.63-100.82-9.35-127.84-55.41-12.57-21.42-13.26-44.59-13.24-68.26.09-129.35-1.66-258.74,1.01-388.04.85-40.97-7.24-56-51.92-54.11-92.44,3.92-185.16,1.42-277.76,1.09-73.75-.27-125.64-46.24-126.88-111.55-1.25-66.19,52.2-115.3,127.79-115.79,97.01-.63,194.05-1.17,291.03.46,28.59.48,38.82-7.13,37.38-36.75-2.35-48.39-2.63-97.1.05-145.45,1.87-33.7-6.9-45.76-43.09-44.81-98.42,2.59-196.96,1.76-295.42.44-56.47-.76-97.46-32.62-112.28-82.42-13.94-46.85,2.95-95.27,43.26-124.51,22.49-16.32,47.83-20.53,75.07-20.38,97.01.51,194.06-1.29,291.02,1,33.1.78,41.78-8.31,41.55-41.43-1.53-220.48-.79-440.97-.79-661.46ZM682.55,851.3c0,195.38.46,390.76-.51,586.14-.14,28.11,3.56,41.47,37.27,41.24,237.97-1.58,475.97.75,713.93-1.66,142.63-1.44,270.85-49.41,381.17-140.23,206.7-170.16,282.24-440.81,195.03-692.02-85.61-246.59-319.79-414.64-586.19-416.89-232.09-1.96-464.21.48-696.3-1.43-38.43-.32-45.42,12.57-45.14,47.53,1.57,192.43.75,384.88.75,577.32Z"/>
  </g>
</svg>