<?xml version="1.0" encoding="UTF-8"?>
<svg id="Layer_2" data-name="Layer 2" xmlns="http://www.w3.org/2000/svg" viewBox="0 0 2366.28 1787.64">
  <defs>
    <style>
      .cls-1 {
        fill: none;
        opacity: .7;
        stroke: #fff;
        stroke-miterlimit: 10;
        stroke-width: 25px;
      }

      .cls-2 {
        fill: #ec1f27;
        stroke-width: 0px;
      }
    </style>
  </defs>
  <g id="Layer_1-2" data-name="Layer 1">
    <g>
      <path class="cls-2" d="M1059.91,317.16c10.95,4.84,22.94,4.3,34.41,6.36,162.61,29.19,291.5,159.57,319.28,323.42,34.77,205.13-93.75,400.94-296.38,451.22-7.36,1.83-10.05,4.46-9.87,12.55.64,28.87.04,57.76.31,86.64.2,21.83-8.51,37.66-29.45,45.4-5.2,1.92-5.28,5.18-5.25,9.49.12,18-.04,36.01.07,54.01.22,38.85,25.28,64,64.05,64.06,66.39.11,132.78.03,199.17.03,52.51,0,105.02.03,157.53,0,41.7-.03,66.13-24.56,66.14-66.52.04-114.4-.05-228.8.16-343.19.01-7.22-1.13-10.96-9.11-13.31-19.92-5.86-33.37-19.74-40.5-39.08-11.12-30.16-21.61-60.54-32.36-90.84-2.79-7.86-3.78-15.98-3.77-24.29.04-44.63.12-89.27-.04-133.9-.06-17.15,5.65-31.02,21.65-38.72,5.6-2.7,4.86-6.65,4.87-10.98.02-30.76-.06-61.51.03-92.27.08-26.05,15.04-41.38,40.99-41.49,45.38-.2,90.77-.22,136.15,0,25.7.13,40.96,15.79,41.07,41.7.13,30.38.13,60.76-.06,91.14-.04,5.96.71,9.84,7.04,13.16,11.61,6.08,18.18,16.63,18.57,30.1.36,12.74.55,25.51.11,38.24-.35,10.09-7.05,16.37-16.25,16.54-9.17.16-16.28-5.86-17-15.88-.75-10.45-.56-20.99-.25-31.48.19-6.53-1.66-9.3-8.83-9.27-61.89.24-123.78.2-185.66.04-6.29-.02-8.67,2.13-8.65,8.46.17,46.13.02,92.27.29,138.4.03,4.72,1.73,9.56,3.33,14.11,9.54,27.15,19.21,54.26,28.98,81.32,6.64,18.41,16.03,25.11,35.2,25.2,22.88.1,45.76.14,68.64-.01,17.81-.11,28.1-7.26,34.07-23.8,10.03-27.77,19.65-55.69,29.78-83.42,3.75-10.26,2.33-20.73,2.76-31.15.22-5.23-.17-10.57.77-15.67,1.64-8.92,7.78-13.96,16.63-13.64,9.3.33,15.82,5.74,16.08,15.47.6,21.66,1.6,43.19-6.97,64.21-10,24.56-18.31,49.81-27.04,74.88-7.66,22.01-21.87,37.49-44.45,43.81-8.08,2.26-6.81,7.29-6.81,12.65-.02,115.15-.16,230.3.05,345.45.09,47.11-16.14,87.21-50.26,119.63-30.07,28.58-66.29,43.41-107.73,43.53-123.4.35-246.8.48-370.2,0-84.35-.32-153.84-67.97-157.23-152.27-.86-21.35-.45-42.75-.23-64.13.06-5.58-1.27-8.52-6.91-10.78-19.11-7.64-28.29-22.47-28.36-42.88-.11-30.01-.29-60.02.16-90.02.11-7.02-2.21-9.53-8.75-11.1-155.17-37.24-274.05-166.18-297.98-322.94-31.03-203.28,94.22-393.93,292.94-445.83,18.14-4.74,36.63-7.66,55.21-10.04,2.01-.26,4.67.77,5.58-2.29h74.28ZM1144.26,1054.74c69.13-24.27,124.99-66.53,169.35-124.54,4.17-5.45,2.98-7.46-2.65-10.51-24.1-13.02-49.39-22.99-75.35-31.59-6.56-2.18-7.59.47-8.97,5.31-16.88,58.94-42.99,113.05-83.79,159.42-1,.32-2.28.71-1.46,1.99.27.42,1.88-.03,2.87-.08ZM1039.89,713.57c0,34.12.21,68.24-.17,102.36-.08,7.22,1.74,9.61,9.22,9.74,49.58.81,98.65,6.44,146.99,17.66,7.06,1.64,9.31-.59,10.19-7.12,2.45-18.17,5.85-36.24,7.82-54.45,6.98-64.54,3.89-128.71-8.01-192.5-1.07-5.72-3.28-7.21-9.07-5.87-48.33,11.21-97.38,16.97-146.96,17.75-8.74.14-10.31,3.21-10.21,11.2.45,33.74.19,67.49.19,101.23ZM1006.09,714.45c0-34.12-.29-68.24.21-102.35.12-8.26-1.9-10.83-10.39-10.95-49.21-.72-97.86-6.64-145.85-17.58-6.26-1.43-8.39-.28-9.6,6.03-4.09,21.36-7.17,42.85-9.13,64.49-5.56,61.22-2.48,122.02,8.86,182.45,1.25,6.64,3.5,8.34,10.22,6.79,47.97-11.06,96.64-16.81,145.85-17.62,7.65-.13,10.14-2.02,10.03-10.02-.46-33.74-.2-67.48-.2-101.23ZM1385.84,708.34c-.4-6.26-.84-17.5-1.86-28.7-4.59-50.25-19.41-97.36-43.58-141.64-3.1-5.69-5.44-5.99-10.88-2.82-26.29,15.31-54.44,26.51-83.5,35.22-7.47,2.24-8.88,4.96-7.38,12.54,17.12,86.72,16.98,173.56.22,260.3-1.49,7.72-.61,11.04,7.45,13.41,28.39,8.36,55.9,19.17,81.47,34.22,7.24,4.26,9.93,3.23,13.88-4.11,29.13-54.21,43.57-112.02,44.2-178.42ZM660.8,713.44c-.16,61.93,15.07,119.91,44.44,174.35,3.34,6.18,5.95,7.18,12.3,3.52,25.36-14.6,52.24-25.95,80.38-33.89,9.17-2.59,11.59-6.12,9.45-15.47-6.11-26.7-8.93-53.92-10.85-81.22-4.22-60.17-.57-119.85,11.29-178.98,1.25-6.25.22-8.96-6.6-10.99-28.35-8.45-55.92-19.17-81.56-34.03-8.11-4.7-11.21-3.95-15.57,4.31-28.49,54-43.47,111.27-43.29,172.42ZM1316.17,1435.78c59.62,0,119.24-.05,178.85.04,11.29.02,22.46-.79,33.42-3.51,59.74-14.85,96.95-63.65,97.03-127.83.14-111.36.04-222.72.04-334.08,0-19.09-.03-18.4-19.38-19.34-10.66-.52-12.67,3.06-12.64,13.01.35,114.36.4,228.72.15,343.08-.12,56.57-40.68,96.85-97.27,96.92-119.99.16-239.97.17-359.96,0-56.52-.08-96.71-40.45-97.18-97.07-.15-18-.04-36,0-53.99,0-3.86.35-8.35-5.35-7.4-8.76,1.47-18.38-4.14-26.34,3.22-.39.36-.13,1.45-.12,2.2.6,26.59-2.68,53.44,1.88,79.73,10.71,61.89,61.69,104.53,124.64,104.93,60.74.39,121.49.08,182.23.09ZM902.62,374.89c-3.48-2.8-6.07-1.06-8.82,0-65.21,25.24-118.65,66-160.97,121.6-3.89,5.12-3.95,7.23,2.08,10.47,24.12,12.97,49.27,23.25,75.36,31.49,5.72,1.81,7.47,1.16,9.29-4.77,5.04-16.41,10.75-32.64,16.79-48.71,4.49-11.96,13.9-16.49,23.54-12.34,9.1,3.92,11.88,13.15,7.75,24.87-5.1,14.44-9.55,29.12-15.2,43.34-3.15,7.92-.11,9.15,6.75,10.6,44.47,9.35,89.37,14.62,134.79,16.27,9.39.34,12.52-.97,12.42-11.45-.6-60.73-.29-121.46-.29-182.2,0-24.32-.04-24.41-22.91-15-32.71,13.44-56.39,37.52-76.61,65.58-8.86,12.29-18.01,15.52-27,9.43-9.2-6.23-9.45-16.73-.15-29.35,7.47-10.13,15.44-19.89,23.21-29.82ZM1039.88,966.84c0,32.62.28,65.25-.19,97.86-.12,8.5,2.08,10.14,10.06,7.9,28.78-8.08,51.78-24.78,71.24-46.81,36.2-40.97,57.35-89.79,73.5-141.24,1.91-6.09-.59-7.78-5.8-8.86-46.33-9.58-93.07-15.43-140.41-16.59-7.26-.18-8.63,2.04-8.56,8.75.34,32.99.15,65.99.15,98.99ZM1039.88,460.37c0,32.99.01,65.98-.01,98.97,0,4.53-.91,8.67,6.46,8.49,48.45-1.18,96.33-6.93,143.72-16.96,4.79-1.01,6-3.22,4.58-7.84-16.56-54.18-38.89-105.3-78.57-147.07-18.6-19.58-40.28-34.42-66.75-41.74-7.38-2.04-9.72-1.14-9.61,7.17.44,32.98.18,65.98.18,98.97ZM1006.1,966.61c0-32.98.01-65.97-.02-98.95,0-4.23,1.57-8.8-6.15-8.61-48.44,1.21-96.33,6.69-143.65,17.16-4.07.9-6.41,1.71-4.72,7.27,14.66,48.33,34.45,94.1,66.41,133.75,20.58,25.53,45.03,45.82,77.46,54.96,7.89,2.23,11.1,2.13,10.91-7.77-.63-32.6-.24-65.21-.24-97.82ZM1609.55,616.33c22.1,0,44.21-.25,66.3.14,6.93.12,9.78-1.15,9.65-9.02-.5-29.21-.42-58.44-.05-87.65.1-7.82-2.39-11.19-10.27-10.38-2.97.31-6.04.4-8.98-.02-7.17-1.02-8.93,2.12-8.68,8.87.49,13.09.4,26.22.06,39.33-.32,12.42-6.88,19.29-17.31,19.05-10.07-.23-15.97-6.79-16.32-18.8-.28-9.73-.07-19.48-.07-29.22,0-19.66,0-19.32-19.62-19.35-6.95-.01-9.02,1.9-8.73,8.84.56,13.09.28,26.22.12,39.33-.15,12.24-6.6,19.38-16.99,19.27-10.23-.12-16.54-7.41-16.72-19.69-.16-10.49-.03-20.98-.03-31.47q0-16.43-16.81-16.09c-.75.02-1.5.06-2.25,0-6.29-.56-8.41,2.22-8.36,8.54.25,30.34.27,60.69-.02,91.03-.06,6.04,1.85,7.51,7.65,7.42,22.47-.32,44.95-.13,67.43-.13ZM1142.11,373.9c3.33,3.85,6,6.87,8.61,9.95,2.66,3.15,5.35,6.27,7.87,9.53,32.05,41.39,52.97,88.29,67.51,138.19,2.27,7.78,4.67,8.95,12.12,6.42,24.45-8.32,48.26-17.96,71.24-29.82,7.86-4.06,7.84-6.95,2.64-13.63-42.1-54.18-94.57-94.38-158.66-119.21-3.1-1.2-6.01-3.13-11.34-1.43ZM728.2,924.08c45.44,61.93,103.47,105.9,175.86,130.71-6.67-9.68-14.31-18.37-21.17-27.64-29.48-39.89-48.87-84.67-62.74-131.98-1.94-6.63-3.48-9.14-11.17-6.54-27.69,9.34-54.76,19.87-80.79,35.46ZM1073.8,1157.12c0-14.25-.23-28.5.11-42.75.14-5.68-1.09-7.98-7.37-7.21-29.15,3.57-58.36,3.45-87.51-.02-5.59-.67-6.99,1.01-6.93,6.51.27,28.12.27,56.25.04,84.37-.08,9.52,4.08,13.72,13.47,13.68,25.12-.12,50.25-.09,75.37-.01,8.82.03,13.06-3.84,12.88-12.95-.27-13.87-.07-27.75-.07-41.62Z"/>
      <path class="cls-2" d="M1144.26,1054.74c-.99.05-2.6.5-2.87.08-.82-1.27.46-1.67,1.46-1.99.47.64.94,1.27,1.41,1.91Z"/>
    </g>
    <polyline class="cls-1" points="2353.78 1463.06 2353.78 1775.14 2064.06 1775.14"/>
    <polyline class="cls-1" points="12.5 1463.06 12.5 1775.14 301.42 1775.14"/>
    <polyline class="cls-1" points="2064.06 12.5 2353.78 12.5 2353.78 337.14"/>
    <polyline class="cls-1" points="12.5 337.14 12.5 12.5 301.42 12.5"/>
  </g>
</svg>