<?xml version="1.0" encoding="UTF-8"?>
<svg id="Layer_2" data-name="Layer 2" xmlns="http://www.w3.org/2000/svg" viewBox="0 0 2366.28 1787.64">
  <defs>
    <style>
      .cls-1 {
        fill: none;
        opacity: .7;
        stroke: #000;
        stroke-miterlimit: 10;
        stroke-width: 25px;
      }

      .cls-2 {
        fill: #ed222a;
        stroke-width: 0px;
      }
    </style>
  </defs>
  <g id="Layer_1-2" data-name="Layer 1">
    <g>
      <path class="cls-2" d="M872.57,1070.81c-14.35-8.59-28.48-16.33-42.64-23.89-18.03-9.63-35.85-19.66-53.89-29.28-22.3-11.89-44.17-24.59-66.29-36.82-10.53-5.83-21.28-11.27-31.81-17.1-8.66-4.8-9.58-15.95-.87-21.11,11.81-6.99,23.88-13.53,35.85-20.23,16.91-9.47,33.86-18.89,50.87-28.19,14.95-8.17,29.84-16.51,44.94-24.43,9.35-4.9,18.63-10.15,27.68-15.73,11.04-6.81,22.75-12.55,34.21-18.68,16.15-8.65,32.18-17.54,48.2-26.41,14.61-8.09,29.18-16.32,43.73-24.55,9.44-5.35,19.04-10.6,28.81-15.46,5.14-2.56,10.44-5.52,15.34-8.86,1.77-1.21,1.55-1.6.66-3.3-3.59-6.9-8.62-12.84-12.65-19.43-11.09-18.1-22.65-35.93-32.42-54.8-6.89-13.31-13.5-26.72-19.46-40.52-6.05-14.01-11.16-28.3-15.51-42.82-2.91-9.71-4.11-19.95-5.42-30.12-2.06-16.02-.85-31.89.61-47.73,1.36-14.69,4.19-29.14,8.48-43.42,2.5-8.33,5-16.76,8.11-24.78,4.1-10.59,9.21-20.87,14.78-30.9,7.01-12.62,14.69-24.86,23.7-35.97,12.97-15.98,27.53-30.56,43.86-43.3,16.36-12.76,33.87-23.63,52.71-32.18,11.24-5.1,22.82-9.5,34.82-12.73,10.46-2.81,20.97-5.2,31.6-7.32,6.45-1.28,12.74-1.63,19.14-1.69,15.65-.14,31.3.1,46.95-.09,10.51-.13,20.6,1.79,30.74,4.36,6.46,1.64,13.02,2.85,19.49,4.62,10.1,2.77,19.96,6.22,29.44,10.45,11.64,5.2,23.08,10.93,33.94,17.75,18.25,11.48,35.24,24.51,50.12,40.13,17.12,17.96,31.96,37.62,43.7,59.58,7.39,13.81,13.84,28.14,18.18,43.05,3.21,11.03,6.3,22.22,8.33,33.73,3.56,20.11,4.62,40.18,4.1,60.46-.22,8.67-2.82,16.95-4.06,25.44-1.46,9.95-4.93,19.28-8.03,28.66-2.97,9-6.7,17.81-10.5,26.56-3.92,9.05-8.04,18-12.56,26.72-7.11,13.7-14.73,27.15-22.55,40.49-7.23,12.33-15.37,24.07-22.44,36.49-1.41,2.48-3.12,5.03-4.97,7.14-3.15,3.58-1.34,4.86,1.63,6.59,13.85,8.05,28.22,15.15,42.23,22.89,11.3,6.24,22.51,12.64,33.88,18.78,13.52,7.31,26.79,15.09,40.23,22.56,15.05,8.37,30.17,16.6,45.23,24.95,14.73,8.16,29.49,16.26,44.11,24.63,13.37,7.65,26.84,15.15,40.31,22.58,10.78,5.94,21.65,11.85,32.49,17.71,10.13,5.48,20.28,11.01,30.19,16.92,5.91,3.52,12.07,6.62,17.97,10.15,9.85,5.88,9.05,16.3.29,21.5-12.42,7.37-25.14,14.24-37.79,21.23-10.51,5.8-21.13,11.41-31.65,17.18-20.86,11.46-41.82,22.77-62.51,34.55-19.59,11.16-39.35,21.99-59.18,32.72-1.33.72-2.82,1.76-2.89,3.17-.14,2.65,2.51,1.18,3.74,1.99,10.93,7.18,22.7,12.86,34.11,19.18,16.43,9.1,32.88,18.18,49.31,27.29,12.19,6.76,24.3,13.67,36.53,20.34,14.9,8.13,29.95,16,44.85,24.13,8.02,4.38,15.74,9.34,23.86,13.51,5.14,2.64,8.26,6.66,8.25,11.95,0,5.31-3.9,9.12-8.51,11.59-19.94,10.65-39.54,21.93-59.41,32.68-14.85,8.03-29.56,16.33-44.55,24.14-15.07,7.85-29.43,17.04-44.48,24.93-14.41,7.55-28.57,15.55-42.83,23.35-17.18,9.4-34.13,19.28-51.46,28.35-15.07,7.88-29.74,16.46-44.82,24.33-23.6,12.32-46.32,26.32-69.82,38.84-11.74,6.26-23.56,12.47-35.22,18.83-12.26,6.69-24.45,13.58-36.62,20.47-14.68,8.31-29.53,16.32-44.33,24.43-7.9,4.33-15.86,8.56-23.77,12.87-4.27,2.33-8.48,2.37-12.68-.09-16.82-9.84-34.13-18.82-51.06-28.49-15.5-8.85-31.25-17.32-46.92-25.9-11.6-6.36-23.19-12.77-34.81-19.11-15.6-8.52-31.29-16.89-46.74-25.67-15.39-8.74-30.9-17.27-46.38-25.84-11.78-6.53-23.77-12.82-35.57-19.33-10.38-5.73-20.78-11.54-31.07-17.45-10.3-5.92-20.89-11.42-31.36-17.1-12.57-6.82-24.92-14.04-37.45-20.93-12.92-7.09-25.97-13.95-38.92-20.98-8.95-4.86-17.85-9.82-26.74-14.79-10.77-6.02-21.47-12.16-32.25-18.16-10.73-5.97-21.53-11.84-32.3-17.75-3.62-1.98-7.8-3.34-10.49-6.48-5.09-5.96-5.54-14.86,5.05-20.24,13.66-6.94,27.09-14.36,40.38-21.9,14.57-8.26,29.4-16.07,43.93-24.4,10.69-6.13,21.79-11.78,32.65-17.68,10.31-5.6,20.63-11.27,30.85-17.07,13.5-7.66,27.22-14.9,40.82-22.38,1.55-.85,2.9-2.08,4.69-3.39ZM1183.05,1452.34c1.37-.45,2.73-.67,3.85-1.31,15.57-8.76,31.27-17.28,46.94-25.87,15.61-8.55,31.11-17.29,46.72-25.85,17.69-9.7,35.15-19.85,52.82-29.58,19.15-10.55,38.52-20.68,57.63-31.3,15.52-8.63,31.02-17.29,46.65-25.73,19.6-10.58,38.93-21.67,58.42-32.46,15.42-8.54,30.9-16.98,46.35-25.46,14.94-8.2,29.92-16.32,44.82-24.59,16.12-8.94,32.16-18.03,48.25-27,5.88-3.28,11.91-6.29,17.71-9.71,1.55-.91,5.37-2.1.54-4.71-12.24-6.61-24.21-13.71-36.35-20.52-11.37-6.38-22.78-12.68-34.22-18.94-10.82-5.92-21.73-11.69-32.54-17.63-13.56-7.45-27.07-14.98-40.57-22.51-11.77-6.57-23.39-13.43-35.34-19.64-2.69-1.4-4.97-4.92-9.73-2.13-7.18,4.21-14.56,8.17-21.88,12.19-17.86,9.81-36.16,18.88-53.73,29.18-18.57,10.9-37.5,21.15-56.33,31.56-17.94,9.92-35.95,19.76-53.97,29.55-14.92,8.11-29.82,16.33-44.5,24.92-13.43,7.85-27.15,15.21-40.81,22.66-5.39,2.94-11.03,5.32-17.18,2.11-3.38-1.76-6.58-3.88-9.92-5.71-19.64-10.78-39.32-21.5-58.96-32.3-8.8-4.85-17.5-9.87-26.27-14.77-15-8.39-30-16.79-45.04-25.11-14.85-8.22-29.73-16.39-44.62-24.53-14.53-7.95-29.17-15.7-43.63-23.78-14.52-8.12-28.77-16.72-43.41-24.61-2.18-1.18-4.74-4.14-8.03-2.29-10.43,5.87-20.79,11.84-31.22,17.69-10.1,5.67-20.21,11.32-30.39,16.84-10.7,5.81-21.58,11.3-32.23,17.22-14.59,8.11-28.88,16.76-43.56,24.69-15.51,8.38-31.08,16.66-46.25,25.64-1.1.65-3.62-.07-3.12,2.05.32,1.36,1.81,2.51,3.44,3.32,14.98,7.4,29.27,16.09,44.1,23.81,14.88,7.75,28.84,17.27,43.81,24.82,18.36,9.27,36.02,19.79,54.21,29.35,15.88,8.35,31.39,17.47,47.15,26.1,14.77,8.09,29.37,16.49,44.1,24.65,19.9,11.04,39.76,22.15,59.81,32.9,10.63,5.7,21.1,11.69,31.81,17.25,15.03,7.81,29.35,17.01,44.36,24.85,14.95,7.81,29.62,16.13,44.4,24.22,17.32,9.48,34.7,18.9,51.77,28.84,1.26.73,2.74,1.09,4.12,1.63ZM1183.24,317.17c0,.05,0,.1,0,.15-8.99,0-18.16-1.15-26.91.27-13.55,2.19-27.15,4.42-40.42,8.46-11.66,3.55-23.25,7.43-34.07,12.78-16.55,8.17-32.35,17.68-46.78,29.52-15.94,13.07-30.23,27.52-42.67,43.9-8.85,11.66-16.38,24.16-22.96,37.19-3.71,7.35-7.14,14.93-9.68,22.74-2.97,9.13-5.84,18.3-8.03,27.73-2.54,10.93-4.89,21.96-5.73,32.97-1.05,13.94-1.45,28.03,1.07,42.14,2.5,13.95,6.15,27.54,10.88,40.74,4.32,12.06,9.77,23.76,15.39,35.35,9.56,19.73,20.32,38.79,31.88,57.35,10.71,17.2,22.09,33.98,33.8,50.55,12.19,17.26,24.78,34.21,37.62,50.99,14.92,19.49,30.27,38.63,46.19,57.31,17.57,20.6,35.16,41.18,53.28,61.3,7.89,8.76,5.93,9.08,13.6-.63.5-.63,1.28-1.02,1.84-1.61,5.23-5.63,10.68-11.08,15.59-16.98,15.41-18.5,31.79-36.16,46.69-55.09,7.4-9.41,15.05-18.62,22.51-27.98,8.27-10.38,16.52-20.78,24.63-31.29,5.12-6.63,10.06-13.4,14.88-20.25,8.31-11.79,16.62-23.59,24.65-35.58,7.62-11.39,15.1-22.89,22.25-34.57,8.47-13.85,16.39-28.01,23.99-42.38,6.59-12.45,12.31-25.27,17.77-38.16,4.33-10.25,7.1-21.23,10.46-31.9,4.04-12.84,5.55-26.01,5.44-38.87-.15-16.64-.82-33.53-5.59-49.97-2.16-7.45-3.3-15.42-5.86-22.75-4.34-12.4-9.18-24.63-15.5-36.28-6.83-12.61-14.48-24.56-23.11-35.99-8.01-10.61-17.03-20.31-26.65-29.34-8.28-7.77-17.01-15.37-26.59-21.35-13.43-8.39-26.97-16.76-42-22.43-11.25-4.24-22.36-8.65-34.08-11.55-4.17-1.03-8.49-1.09-12.48-2.43-7.12-2.39-14.58-2.9-21.87-3.82-7.7-.98-15.62-.22-23.44-.22ZM1112.24,893.87c-.43.24-1.28.73-2.14,1.21-3.47,1.94-6.94,3.88-10.43,5.8-14.7,8.1-29.45,16.14-44.1,24.32-8.09,4.52-16.06,9.25-24.34,13.46-7.18,3.64-14.13,7.74-21.04,11.87-1.41.85-3.49,2.58.04,4.1,3.53,1.52,6.67,3.83,10.11,5.62,10.91,5.7,21.55,11.93,32.31,17.92,13.53,7.55,27.06,15.11,40.62,22.59,14.88,8.21,29.84,16.28,44.71,24.52,13.19,7.31,26.24,14.88,39.5,22.07,2.01,1.09,4.07,3.23,7.18,1.53,13.9-7.63,27.96-14.94,41.86-22.56,13.47-7.39,26.81-15.02,40.21-22.53,14.84-8.3,29.65-16.64,44.54-24.86,13.47-7.44,27.06-14.68,40.51-22.18,2.02-1.13,5.73-.56,5.81-3.66.08-3.07-4.03-2.89-5.58-4.97-.17-.23-.6-.27-.89-.43-14.78-8.03-29.61-15.95-44.31-24.12-16.12-8.97-32.16-18.09-48.13-27.32-3.95-2.28-5.87-3.26-9.64,1.65-9.24,12.05-20.05,22.89-30.09,34.33-8.79,10.01-17.71,19.91-27.15,29.31-5.79,5.76-11.42,6.14-16.39,1.41-4.11-3.91-8.04-8.01-11.81-12.25-16.44-18.46-32.8-37-49.14-55.55-.52-.59-.58-1.56-2.19-1.28ZM857.96,1035.25c5.53,3.15,10.11,5.83,14.76,8.4,17.91,9.88,35.87,19.66,53.69,29.7,1.6.9,3.28.98,4.87,1.9,14.52,8.38,29.16,16.55,43.84,24.65,15.16,8.36,30.44,16.5,45.58,24.89,7.59,4.21,14.46,9.01,23.74,2.69,9.88-6.72,20.65-12.16,31.13-17.99,15.18-8.44,30.45-16.71,45.66-25.08,10.37-5.7,20.66-11.54,31.11-17.08,1.65-.88,3.55-1.66,3.9-3.26.48-2.19-2.25-2.72-3.5-3.31-12.78-6.01-24.85-13.35-37.18-20.12-13.43-7.38-26.8-14.94-40.23-22.35-16.16-8.91-32.15-18.13-48.58-26.59-14.79-7.62-28.98-16.44-43.43-24.72-1.29-.74-2.25-.32-3.57.45-6.34,3.73-12.81,7.22-19.26,10.74-17.47,9.53-35.02,18.89-52.39,28.59-8.39,4.68-16.67,9.54-25.22,13.96-8.34,4.31-16.26,9.43-24.91,14.52ZM1208.32,1063.84c11.23,6.19,22.09,12.04,32.83,18.09,10.44,5.88,20.87,11.87,31.33,17.71,15.41,8.61,30.96,16.98,46.3,25.72,7.84,4.47,15.44,8.61,23.46.53.2-.21.66-.14.94-.3,15.17-8.34,30.34-16.67,45.48-25.05,11.37-6.29,22.9-12.28,34.14-18.81,12.35-7.17,25.32-13.24,37.86-20.08,15.71-8.58,31.25-17.46,47.27-26.44-4.93-3.13-9.99-5.69-14.93-8.52-19.65-11.23-39.45-22.17-59.37-32.91-15.8-8.51-31.36-17.47-46.94-26.4-1.87-1.07-3.15-1.12-4.86-.12-12.2,7.15-24.68,13.78-37.1,20.55-15.77,8.6-31.41,17.44-47.18,26.06-15.54,8.5-30.9,17.34-46.54,25.69-14.27,7.61-28.14,15.95-42.7,24.25ZM1383.84,938.45c1.28.05,2.25-.4,3.32-1,14.99-8.39,30.01-16.71,45.03-25.04,13.98-7.76,28-15.46,41.95-23.27,9.67-5.42,19.22-11.04,28.92-16.4,1.29-.71,2.84-.7,3.09-2.59.27-1.95-1.36-1.97-2.45-2.58-12.44-6.92-24.85-13.9-37.33-20.74-11.68-6.4-23.5-12.53-35.16-18.98-9.41-5.2-18.41-11.18-28.04-15.91-9.79-4.81-19.08-10.47-28.77-15.44-9.68-4.97-19.24-10.22-28.61-15.75-3.14-1.85-4.59-.32-5.92,1.65-8.34,12.36-17.42,24.18-26.43,36.05-13.68,18.01-27.61,35.82-42.31,53-2.83,3.31-.44,4.25,1.23,5.75.78.7,2.23.57,3.21,1.12,13.1,7.38,26.08,14.96,39.25,22.21,19.24,10.59,38.52,21.08,57.62,31.92,3.68,2.09,7.25,4.71,11.4,6.01ZM981.96,938.65c.98-.36,2.12-.61,3.09-1.16,7.65-4.33,15.2-8.83,22.91-13.06,16.41-9.03,32.92-17.87,49.34-26.89,12.12-6.66,24.12-13.53,36.26-20.16,2.59-1.42,2.79-3.04,1.2-5.06-2.53-3.22-5.34-6.23-7.87-9.45-8.92-11.33-17.88-22.62-26.62-34.08-11.56-15.14-23.13-30.28-34.25-45.75-2.61-3.63-4.69-2.59-7.41-1.34-.83.38-1.34,1.24-2.27,1.73-9.71,5.09-19.44,10.17-28.97,15.59-5.89,3.35-11.73,6.95-17.74,9.93-9.9,4.91-19.39,10.51-29.09,15.75-14.66,7.92-29.21,16.08-43.81,24.11-11.61,6.38-23.08,13.05-34.93,18.99-3.92,1.97-2.74,3.33.16,4.79,10.59,5.36,20.37,12.13,31.02,17.43,14.4,7.17,28.3,15.36,42.35,23.18,11.49,6.39,23.15,12.57,34.42,19.42,3.72,2.26,7.41,5.22,12.21,6.01ZM1305.81,1145.55c-11.51-5.7-22.58-11.89-33.49-18.22-10.27-5.97-20.76-11.58-31.08-17.45-16.57-9.44-33.47-18.32-50.11-27.66-3.25-1.82-6.74-5.21-11.22-2.71-13.24,7.4-26.37,15-39.71,22.22-11.57,6.26-23.05,12.67-34.5,19.14-14.22,8.03-28.72,15.57-43.12,23.28-1.05.56-2.47,1.03-2.03,2.33.31.89.73,2.02,1.93,2.65,9.58,5.08,19.15,10.2,28.63,15.46,14.47,8.03,28.77,16.38,43.33,24.23,13.95,7.52,27.88,15.07,41.69,22.87,2.68,1.51,5.65,5.61,9.69,2.29,3.29-2.71,7.26-4.1,10.9-6.13,19.33-10.82,38.7-21.58,58.11-32.25,13.48-7.41,27.22-14.38,40.51-22.12,3.54-2.06,8.17-3.15,10.46-7.93ZM830.91,1020.62c2.48-.51,3.71-.86,5.08-1.55,8.92-4.46,16.95-10.59,25.81-14.87,11.37-5.49,22.28-11.79,33.43-17.63,19.31-10.12,38.11-21.2,57.13-31.88.78-.44,2.28-.06,2.17-1.49-.09-1.16-.75-2.15-1.95-2.67-2.85-1.23-5.4-3.03-8.01-4.56-7.17-4.23-14.45-8.42-21.87-12.2-15.04-7.64-29.67-16.05-44.38-24.23-14.53-8.08-29.51-15.45-43.49-24.55-1.22-.8-2.79-.87-4.24-.05-12.77,7.17-25.68,14.1-38.47,21.22-13.88,7.72-27.79,15.41-41.65,23.17-11.76,6.58-23.61,13.01-35.25,19.79-6.82,3.97-6.62,4.1.19,7.8,20.05,10.89,40.06,21.87,60.07,32.84,17.15,9.41,34.26,18.89,51.45,28.23,1.62.88,2.72,3.05,3.99,2.63ZM1533.4,1020.5c1.05-.25,1.95-.25,2.61-.65,4.41-2.62,9.15-4.71,13.52-7.25,15.4-8.94,31.09-17.29,46.76-25.72,19.3-10.38,38.25-21.42,57.36-32.16.78-.44,2.28-.1,2.12-1.53-.15-1.36-1.13-2.21-2.42-2.9-4.22-2.27-8.31-4.79-12.52-7.08-19.23-10.44-38.56-20.71-57.71-31.3-14.53-8.03-28.75-16.61-43.33-24.53-2.36-1.28-4.8-4.45-8.38-2.42-4.53,2.57-9.08,5.1-13.62,7.65-14.57,8.17-29.09,16.43-43.72,24.49-20.22,11.14-40.53,22.1-60.74,33.26-2.04,1.13-3.73,2.38.11,4.51,14.54,8.08,29.19,15.93,43.81,23.87,21.68,11.78,43.07,24.08,64.76,35.83,3.77,2.04,7.21,4.98,11.4,5.92Z"/>
      <path class="cls-2" d="M1182.5,699.67c-39.34.43-72.93-14.11-100.53-41.31-27.82-27.42-41.86-61.88-41.83-100.72.03-38.63,13.81-72.87,41.56-100.29,28.46-28.13,62.91-42.35,103.35-42.12,75.83.43,142.66,64.82,140.22,147.24-2.17,73.15-64.41,138.67-142.77,137.21ZM1065.17,556.92c.41,7.03.46,14.05,1.5,21.15,1.44,9.88,4.54,19.09,8.45,27.92,8.89,20.05,22.46,36.54,40.81,48.84,9.15,6.13,18.73,11.17,29.41,14.51,10.88,3.4,21.69,6.23,33.09,6.38,8.43.12,16.76-.22,25.19-1.68,7.66-1.33,15.2-3.33,22.19-6.03,13.14-5.07,25.29-12.44,35.86-22.05,13.85-12.58,24.17-27.42,31.07-44.98,6.02-15.31,8.83-31.03,8.51-47.22-.16-8.14-1.93-16.29-3.7-24.38-2.28-10.44-6.19-20.1-11.29-29.33-7.3-13.19-17.09-24.28-28.58-34.06-7.46-6.36-16.09-10.57-24.51-15.25-4.55-2.53-9.51-4.05-14.47-5.69-9.27-3.05-18.77-5.22-28.36-5.77-19.76-1.14-38.67,2.69-56.8,11.13-16.01,7.46-29.6,17.65-41.07,30.99-12.1,14.06-20.01,30.38-24.6,48.02-2.28,8.75-4.11,18.11-2.7,27.51Z"/>
    </g>
    <polyline class="cls-1" points="2353.78 1463.06 2353.78 1775.14 2064.06 1775.14"/>
    <polyline class="cls-1" points="12.5 1463.06 12.5 1775.14 301.42 1775.14"/>
    <polyline class="cls-1" points="2064.06 12.5 2353.78 12.5 2353.78 337.14"/>
    <polyline class="cls-1" points="12.5 337.14 12.5 12.5 301.42 12.5"/>
  </g>
</svg>